GIL11_xslow1_ik
nRows=3
nColumns=375

# SIMM Motion File Header:
name GIL11_xslow1_ik
datacolumns 375
datarows 3
otherdata 1
range 0.97500000 0.99167000
endheader
time	pelvis_tx	pelvis_ty	pelvis_tz	pelvis_tilt	pelvis_list	pelvis_rotation	hip_flexion_r	hip_adduction_r	hip_rotation_r	knee_angle_r	ankle_angle_r	hip_flexion_l	hip_adduction_l	hip_rotation_l	knee_angle_l	ankle_angle_l	lumbar_extension	lumbar_bending	lumbar_rotation	subtalar_angle_r	mtp_angle_r	subtalar_angle_l	mtp_angle_l	asis_r_px	asis_r_py	asis_r_pz	asis_l_px	asis_l_py	asis_l_pz	midasis_px	midasis_py	midasis_pz	psis_r_px	psis_r_py	psis_r_pz	psis_l_px	psis_l_py	psis_l_pz	hip_r_px	hip_r_py	hip_r_pz	hip_l_px	hip_l_py	hip_l_pz	midhip_px	midhip_py	midhip_pz	epicondLat_r_px	epicondLat_r_py	epicondLat_r_pz	epicondMed_r_px	epicondMed_r_py	epicondMed_r_pz	thighwand_r_px	thighwand_r_py	thighwand_r_pz	upperleg1_r_px	upperleg1_r_py	upperleg1_r_pz	upperleg2_r_px	upperleg2_r_py	upperleg2_r_pz	malleolusLat_r_px	malleolusLat_r_py	malleolusLat_r_pz	malleolusMedv_r_px	malleolusMedv_r_py	malleolusMedv_r_pz	shankwand_r_px	shankwand_r_py	shankwand_r_pz	lowerleg1_r_px	lowerleg1_r_py	lowerleg1_r_pz	knee_r_px	knee_r_py	knee_r_pz	ankle_r_px	ankle_r_py	ankle_r_pz	toe_r_px	toe_r_py	toe_r_pz	epicondLat_l_px	epicondLat_l_py	epicondLat_l_pz	epicondMed_l_px	epicondMed_l_py	epicondMed_l_pz	thighwand_l_px	thighwand_l_py	thighwand_l_pz	upperleg1_l_px	upperleg1_l_py	upperleg1_l_pz	upperleg2_l_px	upperleg2_l_py	upperleg2_l_pz	malleolusLat_l_px	malleolusLat_l_py	malleolusLat_l_pz	malleolusMedv_l_px	malleolusMedv_l_py	malleolusMedv_l_pz	shankwand_l_px	shankwand_l_py	shankwand_l_pz	lowerleg1_l_px	lowerleg1_l_py	lowerleg1_l_pz	knee_l_px	knee_l_py	knee_l_pz	ankle_l_px	ankle_l_py	ankle_l_pz	toe_l_px	toe_l_py	toe_l_pz	subclavicle_r_px	subclavicle_r_py	subclavicle_r_pz	subclavicle_l_px	subclavicle_l_py	subclavicle_l_pz	neck_px	neck_py	neck_pz	sternalnotch_px	sternalnotch_py	sternalnotch_pz	xyphoidprocess_px	xyphoidprocess_py	xyphoidprocess_pz	midhip_tx	midhip_ty	midhip_tz	hip_r_tx	hip_r_ty	hip_r_tz	hip_l_tx	hip_l_ty	hip_l_tz	knee_r_tx	knee_r_ty	knee_r_tz	knee_l_tx	knee_l_ty	knee_l_tz	ankle_r_tx	ankle_r_ty	ankle_r_tz	ankle_l_tx	ankle_l_ty	ankle_l_tz	midasis_tx	midasis_ty	midasis_tz	asis_r_tx	asis_r_ty	asis_r_tz	asis_l_tx	asis_l_ty	asis_l_tz	psis_r_tx	psis_r_ty	psis_r_tz	psis_l_tx	psis_l_ty	psis_l_tz	epicondLat_r_tx	epicondLat_r_ty	epicondLat_r_tz	epicondLat_l_tx	epicondLat_l_ty	epicondLat_l_tz	epicondMed_r_tx	epicondMed_r_ty	epicondMed_r_tz	epicondMed_l_tx	epicondMed_l_ty	epicondMed_l_tz	malleolusLat_r_tx	malleolusLat_r_ty	malleolusLat_r_tz	malleolusLat_l_tx	malleolusLat_l_ty	malleolusLat_l_tz	malleolusMedv_r_tx	malleolusMedv_r_ty	malleolusMedv_r_tz	malleolusMedv_l_tx	malleolusMedv_l_ty	malleolusMedv_l_tz	neck_tx	neck_ty	neck_tz	subclavicle_r_tx	subclavicle_r_ty	subclavicle_r_tz	subclavicle_l_tx	subclavicle_l_ty	subclavicle_l_tz	sternalnotch_tx	sternalnotch_ty	sternalnotch_tz	xyphoidprocess_tx	xyphoidprocess_ty	xyphoidprocess_tz	thighwand_r_tx	thighwand_r_ty	thighwand_r_tz	thighwand_l_tx	thighwand_l_ty	thighwand_l_tz	upperleg1_r_tx	upperleg1_r_ty	upperleg1_r_tz	upperleg1_l_tx	upperleg1_l_ty	upperleg1_l_tz	upperleg2_r_tx	upperleg2_r_ty	upperleg2_r_tz	upperleg2_l_tx	upperleg2_l_ty	upperleg2_l_tz	shankwand_r_tx	shankwand_r_ty	shankwand_r_tz	shankwand_l_tx	shankwand_l_ty	shankwand_l_tz	lowerleg1_r_tx	lowerleg1_r_ty	lowerleg1_r_tz	lowerleg1_l_tx	lowerleg1_l_ty	lowerleg1_l_tz	toe_r_tx	toe_r_ty	toe_r_tz	toe_l_tx	toe_l_ty	toe_l_tz	ground_force_vx	ground_force_vy	ground_force_vz	ground_force_px	ground_force_py	ground_force_pz	ground_force_vx	ground_force_vy	ground_force_vz	ground_force_px	ground_force_py	ground_force_pz	ground_torque_x	ground_torque_y	ground_torque_z	ground_torque_x	ground_torque_y	ground_torque_z	ground_marker_px	ground_marker_py	ground_marker_pz	ground_marker_px	ground_marker_py	ground_marker_pz	ground_marker_px	ground_marker_py	ground_marker_pz	ground_marker_px	ground_marker_py	ground_marker_pz	ground_marker_px	ground_marker_py	ground_marker_pz	ground_marker_px	ground_marker_py	ground_marker_pz	ground_marker_px	ground_marker_py	ground_marker_pz	ground_marker_px	ground_marker_py	ground_marker_pz	ground_marker_px	ground_marker_py	ground_marker_pz	ground_marker_px	ground_marker_py	ground_marker_pz	ground_marker_px	ground_marker_py	ground_marker_pz	ground_marker_px	ground_marker_py	ground_marker_pz	ground_marker_px	ground_marker_py	ground_marker_pz	ground_marker_px	ground_marker_py	ground_marker_pz	ground_marker_px	ground_marker_py	ground_marker_pz	ground_marker_px	ground_marker_py	ground_marker_pz	ground_marker_px	ground_marker_py	ground_marker_pz	ground_marker_px	ground_marker_py	ground_marker_pz	ground_marker_px	ground_marker_py	ground_marker_pz	ground_marker_px	ground_marker_py	ground_marker_pz	ground_marker_px	ground_marker_py	ground_marker_pz	ground_marker_px	ground_marker_py	ground_marker_pz	ground_marker_px	ground_marker_py	ground_marker_pz	ground_marker_px	ground_marker_py	ground_marker_pz	ground_marker_px	ground_marker_py	ground_marker_pz	ground_marker_px	ground_marker_py	ground_marker_pz	ground_marker_px	ground_marker_py	ground_marker_pz	ground_marker_px	ground_marker_py	ground_marker_pz	ground_marker_px	ground_marker_py	ground_marker_pz	ground_marker_px	ground_marker_py	ground_marker_pz	ground_marker_px	ground_marker_py	ground_marker_pz	ground_marker_px	ground_marker_py	ground_marker_pz	ground_marker_px	ground_marker_py	ground_marker_pz	ground_marker_px	ground_marker_py	ground_marker_pz	ground_marker_px	ground_marker_py	ground_marker_pz	ground_marker_px	ground_marker_py	ground_marker_pz	ground_marker_px	ground_marker_py	ground_marker_pz
      0.97500000	      0.59861608	      0.86043546	     -0.27525460	     -5.93082767	     -3.11431726	      4.74909010	     18.59873552	      2.75036467	      9.40021771	     -1.64653169	     -8.56125186	    -10.64354631	     -3.15664124	     10.93392299	    -13.56704559	      4.65197533	      0.64485750	      3.55217781	     -1.56800858	      0.00000000	      0.00000000	      0.00000000	      0.00000000	      0.65565493	      0.85016737	     -0.16848539	      0.63348797	      0.84301984	     -0.40256652	      0.61136194	      0.85905320	     -0.27631812	      0.46330797	      0.93696498	     -0.23801874	      0.45468408	      0.93164331	     -0.29177931	      0.53473045	      0.81056639	     -0.19023197	      0.52123492	      0.80361522	     -0.34293593	      0.52798269	      0.80709081	     -0.26658395	      0.65414241	      0.43413216	     -0.14544769	      0.62469687	      0.42962743	     -0.25866334	      0.75562548	      0.59790873	     -0.25425862	      0.69469829	      0.63721327	     -0.18589473	      0.70088652	      0.54948739	     -0.18219985	      0.67783914	      0.05872267	     -0.15317913	      0.69236035	      0.06570743	     -0.22683116	      0.66891097	      0.13596478	     -0.08552716	      0.66397133	      0.14445284	     -0.12872367	      0.61157864	      0.44075778	     -0.19772880	      0.68117154	      0.07431269	     -0.20342201	      0.79110025	      0.03331552	     -0.16450963	      0.44174876	      0.41343011	     -0.40385269	      0.43003103	      0.42845866	     -0.28142595	      0.52005802	      0.52547846	     -0.48522548	      0.47130734	      0.59430933	     -0.43475135	      0.45135806	      0.50967637	     -0.41988308	      0.20564541	      0.11130572	     -0.39468072	      0.22047847	      0.11204304	     -0.32558530	      0.35613755	      0.16225802	     -0.33504806	      0.32084260	      0.18221170	     -0.34689401	      0.40970380	      0.44173667	     -0.33799493	      0.22175261	      0.11955305	     -0.34344015	      0.29845982	      0.03442932	     -0.37453515	      0.60811469	      1.31905763	     -0.21900148	      0.60454587	      1.31637207	     -0.32480930	      0.47614478	      1.35753193	     -0.26405920	      0.60342270	      1.31390830	     -0.27117523	      0.65451751	      1.25232489	     -0.27517033	      0.53877800	      0.82183900	     -0.26466000	      0.52805800	      0.79819900	     -0.18977000	      0.50920500	      0.79382700	     -0.34066100	      0.60904200	      0.43554000	     -0.20200100	      0.40084700	      0.42853900	     -0.34339500	      0.68064700	      0.06582600	     -0.21239300	      0.21536900	      0.11166600	     -0.33511400	      0.61051200	      0.86739000	     -0.27569800	      0.62139200	      0.87081600	     -0.15700300	      0.59963200	      0.86396400	     -0.39439200	      0.41868700	      0.93372800	     -0.22172700	      0.41107600	      0.92941800	     -0.27664700	      0.62398300	      0.43698700	     -0.14597700	      0.40718300	      0.42709000	     -0.40102900	      0.59643200	      0.43082800	     -0.24912500	      0.42418600	      0.43565600	     -0.27613400	      0.66825800	      0.06236200	     -0.17451800	      0.20148900	      0.11882900	     -0.37193900	      0.68974000	      0.07621200	     -0.24506900	      0.22953000	      0.11537000	     -0.31114500	      0.48047800	      1.36935500	     -0.26381100	      0.60546600	      1.30679100	     -0.21959700	      0.60113400	      1.30185400	     -0.32606600	      0.59962900	      1.30125200	     -0.27191200	      0.63843300	      1.23101900	     -0.27415800	      0.72637200	      0.59727900	     -0.24223100	      0.48220300	      0.54894000	     -0.48338300	      0.66949300	      0.63501700	     -0.17000900	      0.43171800	      0.60938400	     -0.42551500	      0.67601300	      0.54727400	     -0.17078600	      0.42256500	      0.52352100	     -0.41251500	      0.64774600	      0.13841200	     -0.10197000	      0.35929300	      0.17529000	     -0.33633400	      0.64765100	      0.14802600	     -0.14515000	      0.32071600	      0.19534100	     -0.34161800	      0.78303200	      0.04243200	     -0.18117200	      0.29965200	      0.04693200	     -0.36638600	    -45.60754177	    375.42124727	    -15.19352202	      0.68438422	      0.00000000	     -0.20220087	     37.90898307	    228.74979180	      6.10286125	      0.33313861	      0.00000000	     -0.35401996	      0.00000000	     -1.82419714	      0.00000000	      0.00000000	     -0.59121405	      0.00000000	      0.53877813	      0.82183862	     -0.26465970	      0.52805758	      0.79819852	     -0.18976958	      0.50920498	      0.79382730	     -0.34066120	      0.60904247	      0.43554044	     -0.20200142	      0.40084666	      0.42853859	     -0.34339467	      0.68064702	      0.06582642	     -0.21239263	      0.21536945	      0.11166624	     -0.33511424	      0.61051226	      0.86739016	     -0.27569774	      0.62139249	      0.87081587	     -0.15700303	      0.59963202	      0.86396450	     -0.39439246	      0.41868702	      0.93372756	     -0.22172685	      0.41107574	      0.92941815	     -0.27664736	      0.62398261	      0.43698710	     -0.14597730	      0.40718263	      0.42709041	     -0.40102932	      0.59643239	      0.43082806	     -0.24912530	      0.42418641	      0.43565571	     -0.27613428	      0.66825825	      0.06236249	     -0.17451757	      0.20148896	      0.11882873	     -0.37193853	      0.68974018	      0.07621211	     -0.24506867	      0.22952990	      0.11536971	     -0.31114480	      0.48047763	      1.36935520	     -0.26381055	      0.60546583	      1.30679142	     -0.21959676	      0.60113448	      1.30185413	     -0.32606602	      0.59962922	      1.30125248	     -0.27191249	      0.63843250	      1.23101878	     -0.27415758	      0.72637194	      0.59727913	     -0.24223129	      0.48220289	      0.54894024	     -0.48338315	      0.66949308	      0.63501745	     -0.17000914	      0.43171844	      0.60938436	     -0.42551497	      0.67601299	      0.54727370	     -0.17078565	      0.42256507	      0.52352113	     -0.41251540	      0.64774632	      0.13841188	     -0.10197018	      0.35929286	      0.17529005	     -0.33633405	      0.64765090	      0.14802641	     -0.14514986	      0.32071629	      0.19534102	     -0.34161803	      0.78303176	      0.04243232	     -0.18117240	      0.29965177	      0.04693244	     -0.36638597
      0.98333000	      0.60423427	      0.86144911	     -0.27315973	     -5.88304397	     -3.16164651	      4.73221353	     18.10197226	      2.94306991	      9.26820387	     -1.57090937	     -8.29155398	    -10.50529840	     -3.43390373	     11.20110381	    -14.44280364	      3.59825185	      0.62237057	      3.58402623	     -1.46244434	      0.00000000	      0.00000000	      0.00000000	      0.00000000	      0.66125963	      0.85132047	     -0.16637000	      0.63914742	      0.84395469	     -0.40044954	      0.61698152	      0.86007677	     -0.27421944	      0.46885341	      0.93789525	     -0.23601712	      0.46024523	      0.93252045	     -0.28977493	      0.54037338	      0.81159818	     -0.18810789	      0.52691551	      0.80450547	     -0.34080866	      0.53364444	      0.80805182	     -0.26445827	      0.65661644	      0.43410798	     -0.14387807	      0.62737924	      0.43008504	     -0.25716584	      0.75966528	      0.59728322	     -0.25211935	      0.69891327	      0.63693741	     -0.18380149	      0.70437831	      0.54915631	     -0.18028206	      0.67775054	      0.05860460	     -0.15249469	      0.69247506	      0.06567125	     -0.22609852	      0.66921063	      0.13573891	     -0.08466982	      0.66442076	      0.14436746	     -0.12785536	      0.61421226	      0.44119544	     -0.19623353	      0.68129621	      0.07429542	     -0.20269157	      0.79101846	      0.03291459	     -0.16360297	      0.44895217	      0.41425012	     -0.40322504	      0.43646157	      0.42891945	     -0.28083114	      0.52741121	      0.52674456	     -0.48383450	      0.47815687	      0.59529712	     -0.43347069	      0.45837086	      0.51056649	     -0.41894443	      0.20889053	      0.11449640	     -0.39695756	      0.22326926	      0.11475303	     -0.32776272	      0.35959079	      0.16334663	     -0.33610396	      0.32462175	      0.18378136	     -0.34809552	      0.41657946	      0.44215981	     -0.33746207	      0.22475421	      0.12232418	     -0.34557541	      0.29912844	      0.03500272	     -0.37624105	      0.61358184	      1.32005112	     -0.21719955	      0.60984966	      1.31734747	     -0.32300127	      0.48152555	      1.35846183	     -0.26205801	      0.60881094	      1.31489161	     -0.26936513	      0.65992587	      1.25332947	     -0.27343008	      0.54432800	      0.82247100	     -0.26308100	      0.53382800	      0.79912600	     -0.18784300	      0.51508200	      0.79466900	     -0.33874500	      0.61182600	      0.43608900	     -0.20063000	      0.40772900	      0.42872800	     -0.34370700	      0.68075200	      0.06591700	     -0.21222900	      0.21827700	      0.11464700	     -0.33577200	      0.61627700	      0.86835500	     -0.27374600	      0.62707700	      0.87184500	     -0.15500300	      0.60547600	      0.86486500	     -0.39248900	      0.42430100	      0.93451200	     -0.22030200	      0.41680300	      0.93019700	     -0.27515500	      0.62663400	      0.43729500	     -0.14456500	      0.41446700	      0.42753200	     -0.40130200	      0.59790600	      0.43204900	     -0.24733600	      0.43023900	      0.43541100	     -0.27659700	      0.66827200	      0.06240800	     -0.17438800	      0.20420000	      0.12221200	     -0.37244100	      0.68919400	      0.07715100	     -0.24490200	      0.23236600	      0.11829600	     -0.31174300	      0.48584900	      1.37056800	     -0.26173700	      0.61098600	      1.30821600	     -0.21791800	      0.60645400	      1.30277400	     -0.32444000	      0.60505700	      1.30227800	     -0.27031600	      0.64388300	      1.23220200	     -0.27222800	      0.73084500	      0.59662400	     -0.24029100	      0.48971100	      0.54987200	     -0.48275500	      0.67392600	      0.63520600	     -0.16810300	      0.43899200	      0.61006900	     -0.42493700	      0.67903200	      0.54717100	     -0.16876400	      0.42962900	      0.52397400	     -0.41246700	      0.64816000	      0.13830900	     -0.10141700	      0.36309500	      0.17604200	     -0.33778000	      0.64770400	      0.14796900	     -0.14389700	      0.32488400	      0.19674300	     -0.34247700	      0.78327300	      0.04215700	     -0.18123900	      0.30054800	      0.04718800	     -0.36664200	    -46.24184825	    389.72939792	    -16.47279247	      0.68510828	      0.00000000	     -0.20165390	     36.72385190	    208.44693354	      5.57699148	      0.33330151	      0.00000000	     -0.35378979	      0.00000000	     -1.90717383	      0.00000000	      0.00000000	     -0.50406659	      0.00000000	      0.54432762	      0.82247144	     -0.26308116	      0.53382784	      0.79912561	     -0.18784283	      0.51508152	      0.79466915	     -0.33874521	      0.61182576	      0.43608850	     -0.20063016	      0.40772900	      0.42872757	     -0.34370673	      0.68075198	      0.06591728	     -0.21222882	      0.21827684	      0.11464733	     -0.33577207	      0.61627674	      0.86835486	     -0.27374625	      0.62707722	      0.87184507	     -0.15500325	      0.60547620	      0.86486465	     -0.39248928	      0.42430058	      0.93451196	     -0.22030178	      0.41680291	      0.93019700	     -0.27515537	      0.62663430	      0.43729532	     -0.14456548	      0.41446739	      0.42753169	     -0.40130153	      0.59790635	      0.43204919	     -0.24733591	      0.43023926	      0.43541142	     -0.27659675	      0.66827166	      0.06240777	     -0.17438804	      0.20419966	      0.12221227	     -0.37244087	      0.68919444	      0.07715132	     -0.24490221	      0.23236613	      0.11829562	     -0.31174326	      0.48584917	      1.37056804	     -0.26173675	      0.61098552	      1.30821574	     -0.21791771	      0.60645396	      1.30277443	     -0.32444030	      0.60505700	      1.30227816	     -0.27031636	      0.64388347	      1.23220170	     -0.27222827	      0.73084509	      0.59662366	     -0.24029051	      0.48971072	      0.54987204	     -0.48275465	      0.67392564	      0.63520634	     -0.16810259	      0.43899205	      0.61006886	     -0.42493659	      0.67903179	      0.54717094	     -0.16876368	      0.42962894	      0.52397376	     -0.41246685	      0.64815986	      0.13830943	     -0.10141711	      0.36309460	      0.17604202	     -0.33777955	      0.64770353	      0.14796941	     -0.14389749	      0.32488367	      0.19674331	     -0.34247693	      0.78327286	      0.04215667	     -0.18123868	      0.30054826	      0.04718794	     -0.36664197
      0.99167000	      0.60979950	      0.86243714	     -0.27104221	     -5.83851194	     -3.18843410	      4.72914635	     17.59404651	      3.10655509	      9.09318062	     -1.44969629	     -8.06642372	    -10.30840030	     -3.68831989	     11.47936768	    -15.38957719	      2.44430687	      0.61285099	      3.54349083	     -1.43351713	      0.00000000	      0.00000000	      0.00000000	      0.00000000	      0.66683215	      0.85240325	     -0.16424742	      0.64472700	      0.84491008	     -0.39832359	      0.62254783	      0.86107426	     -0.27210120	      0.47435884	      0.93879511	     -0.23393628	      0.46575515	      0.93338830	     -0.28769160	      0.54597704	      0.81257644	     -0.18596724	      0.53252557	      0.80540137	     -0.33866473	      0.53925131	      0.80898890	     -0.26231599	      0.65892422	      0.43403029	     -0.14222566	      0.62997590	      0.43049498	     -0.25560384	      0.76364464	      0.59656589	     -0.24982310	      0.70303371	      0.63658245	     -0.18159128	      0.70775237	      0.54875125	     -0.17824615	      0.67770568	      0.05848883	     -0.15179765	      0.69267922	      0.06565872	     -0.22534125	      0.66946648	      0.13549410	     -0.08378921	      0.66485146	      0.14426836	     -0.12696443	      0.61671603	      0.44159088	     -0.19468162	      0.68149026	      0.07429104	     -0.20194213	      0.79097354	      0.03250017	     -0.16262039	      0.45645651	      0.41501440	     -0.40257746	      0.44320390	      0.42930328	     -0.28021870	      0.53493585	      0.52803283	     -0.48243066	      0.48512345	      0.59625552	     -0.43216790	      0.46558712	      0.51140910	     -0.41798358	      0.21239498	      0.11771277	     -0.39927609	      0.22632557	      0.11746975	     -0.32998958	      0.36329311	      0.16439563	     -0.33722337	      0.32866001	      0.18532061	     -0.34934371	      0.42375761	      0.44247886	     -0.33690189	      0.22802049	      0.12510409	     -0.34775650	      0.29981106	      0.03551964	     -0.37804979	      0.61885684	      1.32109782	     -0.21560019	      0.61506761	      1.31827121	     -0.32139667	      0.48674961	      1.35936803	     -0.26042873	      0.61406040	      1.31587571	     -0.26775720	      0.66521477	      1.25434360	     -0.27178058	      0.54981300	      0.82306300	     -0.26147300	      0.53954300	      0.79999800	     -0.18596000	      0.52089100	      0.79552100	     -0.33687300	      0.61449300	      0.43653200	     -0.19926000	      0.41491200	      0.42880200	     -0.34411600	      0.68094400	      0.06603000	     -0.21208300	      0.22146000	      0.11769700	     -0.33637500	      0.62198400	      0.86929600	     -0.27181500	      0.63271200	      0.87279900	     -0.15304000	      0.61125500	      0.86579200	     -0.39059000	      0.42985300	      0.93528700	     -0.21885900	      0.42247300	      0.93094500	     -0.27363200	      0.62912300	      0.43749600	     -0.14314300	      0.42205300	      0.42787500	     -0.40166700	      0.59897000	      0.43301400	     -0.24524500	      0.43715000	      0.43515200	     -0.27666100	      0.66831400	      0.06245700	     -0.17429800	      0.20716500	      0.12567800	     -0.37287000	      0.68899000	      0.07795200	     -0.24473600	      0.23546100	      0.12126800	     -0.31236700	      0.49094300	      1.37168400	     -0.26011200	      0.61632000	      1.30939600	     -0.21619500	      0.61168400	      1.30382700	     -0.32286900	      0.61044700	      1.30325800	     -0.26871200	      0.64921500	      1.23334100	     -0.27053500	      0.73514600	      0.59578900	     -0.23821400	      0.49740800	      0.55078300	     -0.48225000	      0.67836100	      0.63507900	     -0.16650000	      0.44657400	      0.61055100	     -0.42418300	      0.68180000	      0.54693900	     -0.16672200	      0.43703900	      0.52426200	     -0.41211400	      0.64843300	      0.13822500	     -0.10091000	      0.36717500	      0.17677000	     -0.33930500	      0.64785500	      0.14791000	     -0.14290000	      0.32942700	      0.19798100	     -0.34365800	      0.78341000	      0.04189500	     -0.18118900	      0.30147700	      0.04740400	     -0.36681800	    -46.90673450	    404.42439046	    -17.51069065	      0.68577728	      0.00000000	     -0.20115337	     34.92832145	    188.12009447	      4.99698370	      0.33350372	      0.00000000	     -0.35355478	      0.00000000	     -1.99306909	      0.00000000	      0.00000000	     -0.42229419	      0.00000000	      0.54981261	      0.82306302	     -0.26147276	      0.53954291	      0.79999757	     -0.18595962	      0.52089137	      0.79552108	     -0.33687314	      0.61449289	      0.43653229	     -0.19925968	      0.41491243	      0.42880219	     -0.34411561	      0.68094426	      0.06603039	     -0.21208322	      0.22146021	      0.11769679	     -0.33637461	      0.62198377	      0.86929578	     -0.27181518	      0.63271201	      0.87279916	     -0.15304047	      0.61125547	      0.86579239	     -0.39058992	      0.42985326	      0.93528724	     -0.21885948	      0.42247313	      0.93094456	     -0.27363202	      0.62912256	      0.43749562	     -0.14314334	      0.42205319	      0.42787519	     -0.40166691	      0.59896988	      0.43301442	     -0.24524544	      0.43715033	      0.43515196	     -0.27666131	      0.66831380	      0.06245726	     -0.17429824	      0.20716467	      0.12567797	     -0.37287033	      0.68899029	      0.07795233	     -0.24473630	      0.23546076	      0.12126761	     -0.31236696	      0.49094316	      1.37168431	     -0.26011220	      0.61631960	      1.30939627	     -0.21619505	      0.61168414	      1.30382681	     -0.32286945	      0.61044741	      1.30325770	     -0.26871225	      0.64921528	      1.23334134	     -0.27053457	      0.73514581	      0.59578937	     -0.23821402	      0.49740839	      0.55078334	     -0.48224986	      0.67836142	      0.63507897	     -0.16649991	      0.44657388	      0.61055148	     -0.42418250	      0.68179971	      0.54693896	     -0.16672167	      0.43703863	      0.52426231	     -0.41211373	      0.64843345	      0.13822520	     -0.10091002	      0.36717480	      0.17677002	     -0.33930486	      0.64785492	      0.14791036	     -0.14289963	      0.32942700	      0.19798103	     -0.34365818	      0.78340971	      0.04189546	     -0.18118925	      0.30147728	      0.04740411	     -0.36681765
